<svg width="101" height="50" viewBox="0 0 101 50" fill="none" xmlns="http://www.w3.org/2000/svg">
<path d="M27.0625 1.875C27.1875 2.08333 27.25 2.5625 27.25 3.3125C27.2917 4.0625 27.2708 4.875 27.1875 5.75C27.1042 6.625 26.9792 7.47917 26.8125 8.3125C26.6875 9.10417 26.5417 9.625 26.375 9.875C26.25 10.0833 25.4792 10.1667 24.0625 10.125C22.6875 10.0417 20.7083 9.83333 18.125 9.5C18.125 11.125 18.1042 13.2083 18.0625 15.75C18.0208 18.2917 17.9375 21.0208 17.8125 23.9375C17.7292 26.8125 17.625 29.7083 17.5 32.625C17.4167 35.5417 17.3125 38.1875 17.1875 40.5625C17.0625 42.9375 16.9375 44.875 16.8125 46.375C16.6875 47.875 16.5833 48.6667 16.5 48.75C16.3333 48.875 16.0417 48.8125 15.625 48.5625C15.25 48.3542 14.8542 48.0417 14.4375 47.625C14.0208 47.2083 13.625 46.7917 13.25 46.375C12.9167 45.9167 12.6875 45.5208 12.5625 45.1875C12.5208 45.0208 12.4375 44.2083 12.3125 42.75C12.2292 41.2917 12.125 39.4583 12 37.25C11.875 35.0417 11.7292 32.5833 11.5625 29.875C11.3958 27.1667 11.2292 24.4792 11.0625 21.8125C10.8958 19.1458 10.7083 16.6458 10.5 14.3125C10.3333 11.9792 10.1875 10.0417 10.0625 8.5C7.22917 8.20833 5.1875 7.91667 3.9375 7.625C2.6875 7.33333 1.97917 7.10417 1.8125 6.9375C1.64583 6.77083 1.47917 6.45833 1.3125 6C1.10417 5.5 0.9375 5 0.8125 4.5C0.6875 4 0.625 3.54167 0.625 3.125C0.583333 2.66667 0.625 2.375 0.75 2.25C0.833333 2.16667 1.54167 2.08333 2.875 2C4.16667 1.91667 5.77083 1.83333 7.6875 1.75C9.60417 1.66667 11.6667 1.60417 13.875 1.5625C16.125 1.52083 18.2083 1.5 20.125 1.5C22.0417 1.5 23.6458 1.54167 24.9375 1.625C26.2708 1.66667 26.9792 1.75 27.0625 1.875ZM49.25 8.3125C49.4583 8.5625 49.6667 9.27083 49.875 10.4375C50.0833 11.6042 50.2292 12.875 50.3125 14.25C50.4375 15.625 50.4792 16.9167 50.4375 18.125C50.4375 19.3333 50.3333 20.125 50.125 20.5C49.9583 20.75 49.5417 21.2083 48.875 21.875C48.2083 22.5 47.4375 23.2083 46.5625 24C45.6875 24.7917 44.7708 25.5833 43.8125 26.375C42.8958 27.125 42.0833 27.7708 41.375 28.3125C41.7083 28.9792 42.125 29.8542 42.625 30.9375C43.125 31.9792 43.6667 33.1042 44.25 34.3125C44.8333 35.4792 45.3958 36.6875 45.9375 37.9375C46.5208 39.1875 47.0417 40.3333 47.5 41.375C47.9583 42.375 48.3333 43.2292 48.625 43.9375C48.9167 44.6042 49.0625 45 49.0625 45.125C49.0625 45.3333 48.9583 45.625 48.75 46C48.5833 46.375 48.3542 46.7292 48.0625 47.0625C47.7708 47.3542 47.4583 47.6042 47.125 47.8125C46.7917 48.0208 46.4792 48.0625 46.1875 47.9375C46.0208 47.8958 45.7083 47.5625 45.25 46.9375C44.7917 46.2708 44.2292 45.4583 43.5625 44.5C42.9375 43.5 42.2292 42.375 41.4375 41.125C40.6875 39.875 39.9167 38.625 39.125 37.375C38.3333 36.0833 37.5833 34.8542 36.875 33.6875C36.1667 32.4792 35.5417 31.4167 35 30.5C34.9167 34.8333 34.8125 38.1667 34.6875 40.5C34.6042 42.8333 34.5417 44.5417 34.5 45.625C34.4167 46.9167 34.3333 47.6458 34.25 47.8125C34.125 47.8125 33.8542 47.6458 33.4375 47.3125C33.0208 46.9375 32.5833 46.5 32.125 46C31.6667 45.5 31.2292 45 30.8125 44.5C30.4375 44 30.2083 43.625 30.125 43.375C30.0417 42.8333 29.9167 41.2708 29.75 38.6875C29.6667 37.5625 29.5833 36.1667 29.5 34.5C29.4167 32.8333 29.3125 30.8125 29.1875 28.4375C29.1042 26.0625 28.9792 23.2708 28.8125 20.0625C28.6458 16.8542 28.4792 13.1667 28.3125 9C27.5625 8.95833 26.9583 8.95833 26.5 9C26.0417 9 25.6875 9.02083 25.4375 9.0625C25.1875 9.10417 25 9.125 24.875 9.125C24.75 9.08333 24.6458 8.97917 24.5625 8.8125C24.3958 8.47917 24.2708 7.91667 24.1875 7.125C24.1042 6.29167 24.0625 5.5 24.0625 4.75C24.0625 3.91667 24.1875 3.08333 24.4375 2.25C24.6458 1.41667 24.9167 0.895833 25.25 0.6875C25.4167 0.5625 26 0.583333 27 0.75C28 0.875 29.1042 1.04167 30.3125 1.25C31.5208 1.45833 32.6667 1.6875 33.75 1.9375C34.875 2.1875 35.6042 2.35417 35.9375 2.4375C36.2292 2.52083 36.7083 2.66667 37.375 2.875C38.0417 3.04167 38.8125 3.29167 39.6875 3.625C40.5625 3.91667 41.4792 4.25 42.4375 4.625C43.4375 5 44.375 5.39583 45.25 5.8125C46.125 6.22917 46.9167 6.64583 47.625 7.0625C48.3333 7.47917 48.875 7.89583 49.25 8.3125ZM35.1875 25.9375C35.5625 25.7292 36.0625 25.3333 36.6875 24.75C37.3125 24.125 37.9792 23.4375 38.6875 22.6875C39.4375 21.8958 40.1875 21.0833 40.9375 20.25C41.6875 19.375 42.3542 18.5625 42.9375 17.8125C43.5625 17.0625 44.0625 16.4167 44.4375 15.875C44.8125 15.3333 45 14.9792 45 14.8125C45 14.5208 44.7292 14.1875 44.1875 13.8125C43.6875 13.3958 43.0208 12.9792 42.1875 12.5625C41.3542 12.1458 40.375 11.75 39.25 11.375C38.125 10.9583 36.9792 10.6042 35.8125 10.3125L35.1875 25.9375ZM54.3125 7.75C54.5208 7.375 54.9583 6.89583 55.625 6.3125C56.2917 5.6875 57.0833 5.0625 58 4.4375C58.9583 3.8125 59.9792 3.25 61.0625 2.75C62.1458 2.20833 63.2292 1.85417 64.3125 1.6875C65.4375 1.47917 66.4792 1.52083 67.4375 1.8125C68.4375 2.0625 69.2917 2.64583 70 3.5625C70.375 4.02083 70.7292 4.9375 71.0625 6.3125C71.3958 7.6875 71.7083 9.35417 72 11.3125C72.3333 13.2292 72.625 15.375 72.875 17.75C73.125 20.0833 73.3333 22.4792 73.5 24.9375C73.6667 27.3542 73.7708 29.75 73.8125 32.125C73.8958 34.4583 73.8958 36.625 73.8125 38.625C73.7708 40.5833 73.6458 42.2708 73.4375 43.6875C73.2708 45.0625 73 46.0208 72.625 46.5625C71.875 47.6458 70.7083 48.375 69.125 48.75C67.5417 49.125 65.875 49.125 64.125 48.75C62.375 48.4167 60.7083 47.7083 59.125 46.625C57.5417 45.5417 56.375 44.0833 55.625 42.25C55.125 41.0417 54.7083 39.3958 54.375 37.3125C54.0833 35.2292 53.8542 32.9792 53.6875 30.5625C53.5208 28.1042 53.4167 25.6042 53.375 23.0625C53.375 20.5208 53.3958 18.1875 53.4375 16.0625C53.5208 13.8958 53.625 12.0625 53.75 10.5625C53.9167 9.0625 54.1042 8.125 54.3125 7.75ZM66.5625 39.4375C66.8125 39.1875 66.9792 38.5208 67.0625 37.4375C67.1875 36.3125 67.25 35 67.25 33.5C67.2917 31.9583 67.2917 30.3333 67.25 28.625C67.25 26.9167 67.25 25.3333 67.25 23.875C67.25 20.1667 67.125 17.2917 66.875 15.25C66.625 13.2083 66.3333 11.6875 66 10.6875C65.625 9.52083 65.2083 8.79167 64.75 8.5C64.125 8.625 63.6042 8.83333 63.1875 9.125C62.7708 9.375 62.4375 9.66667 62.1875 10C61.8958 10.375 61.6667 10.7708 61.5 11.1875C61.375 11.5625 61.2292 12.2917 61.0625 13.375C60.9375 14.4583 60.8125 15.75 60.6875 17.25C60.5625 18.7083 60.4375 20.3125 60.3125 22.0625C60.2292 23.7708 60.1458 25.4583 60.0625 27.125C60.0208 28.7917 59.9792 30.375 59.9375 31.875C59.9375 33.3333 59.9583 34.5417 60 35.5C60.0833 36.9583 60.4167 38.0208 61 38.6875C61.625 39.3542 62.2917 39.7917 63 40C63.7083 40.1667 64.3958 40.1667 65.0625 40C65.7708 39.8333 66.2708 39.6458 66.5625 39.4375ZM92.6875 27.125C91.9375 27.5833 91.1875 28.0208 90.4375 28.4375C89.8125 28.7708 89.1458 29.125 88.4375 29.5C87.7708 29.875 87.2083 30.1667 86.75 30.375C86.6667 34.7083 86.5625 38.0417 86.4375 40.375C86.3542 42.7083 86.2917 44.4167 86.25 45.5C86.1667 46.7917 86.0833 47.5208 86 47.6875C85.9167 47.6875 85.6667 47.5208 85.25 47.1875C84.8333 46.8125 84.375 46.375 83.875 45.875C83.4167 45.375 82.9792 44.875 82.5625 44.375C82.1875 43.875 81.9583 43.5 81.875 43.25C81.8333 42.7083 81.7292 41.1458 81.5625 38.5625C81.4792 37.4375 81.3958 36.0417 81.3125 34.375C81.2292 32.7083 81.125 30.6875 81 28.3125C80.875 25.9375 80.7292 23.1458 80.5625 19.9375C80.4375 16.7292 80.2917 13.0417 80.125 8.875C79.375 8.83333 78.75 8.8125 78.25 8.8125C77.7917 8.8125 77.4375 8.83333 77.1875 8.875C76.9375 8.875 76.75 8.875 76.625 8.875C76.5 8.83333 76.3958 8.72917 76.3125 8.5625C76.1458 8.22917 76.0208 7.66667 75.9375 6.875C75.8542 6.04167 75.8125 5.25 75.8125 4.5C75.8125 3.66667 75.9167 2.83333 76.125 2C76.375 1.16667 76.6667 0.645833 77 0.4375C77.125 0.354167 77.4375 0.333333 77.9375 0.375C78.4792 0.416667 79.1042 0.5 79.8125 0.625C80.5208 0.75 81.2917 0.895833 82.125 1.0625C82.9583 1.22917 83.75 1.39583 84.5 1.5625C85.25 1.72917 85.8958 1.89583 86.4375 2.0625C87.0208 2.1875 87.4375 2.27083 87.6875 2.3125C88.1042 2.39583 88.875 2.64583 90 3.0625C91.125 3.4375 92.3125 3.91667 93.5625 4.5C94.8542 5.04167 96.0625 5.64583 97.1875 6.3125C98.3542 6.9375 99.2083 7.5625 99.75 8.1875C99.9583 8.4375 100.146 9.14583 100.312 10.3125C100.521 11.4792 100.667 12.75 100.75 14.125C100.875 15.4583 100.917 16.75 100.875 18C100.875 19.2083 100.771 20 100.562 20.375C100.396 20.625 100.083 21.0208 99.625 21.5625C99.1667 22.1042 98.5833 22.7083 97.875 23.375C97.2083 24 96.4375 24.6458 95.5625 25.3125C94.6875 25.9792 93.7292 26.5833 92.6875 27.125ZM86.9375 25.8125C87.3125 25.6042 87.7708 25.2083 88.3125 24.625C88.8958 24 89.5 23.3125 90.125 22.5625C90.75 21.7708 91.375 20.9583 92 20.125C92.625 19.25 93.1875 18.4375 93.6875 17.6875C94.2292 16.9375 94.6458 16.2917 94.9375 15.75C95.2708 15.1667 95.4375 14.7917 95.4375 14.625C95.4375 14.375 95.25 14.0625 94.875 13.6875C94.5 13.2708 93.9583 12.8542 93.25 12.4375C92.5833 12.0208 91.75 11.625 90.75 11.25C89.7917 10.8333 88.7292 10.4792 87.5625 10.1875L86.9375 25.8125Z" fill="black"/>
</svg>
